<svg xmlns="http://www.w3.org/2000/svg" width="100.68" height="76.89" viewBox="0 0 100.68 76.89"><defs><style>.a{fill:#fff;}</style></defs><title>icon_video-controls_pause</title><path class="a" d="M288.36,447.45h0c-1,0-24.95-.27-32.6-1H255.6l-0.14,0c-0.27-.06-0.67-0.11-1.13-0.17-2.5-.33-7.16-0.94-10.84-5-3.35-3.62-4.38-10.77-4.48-11.58v0a165.47,165.47,0,0,1-1-16.74v-7.7c0-8.27.88-16.38,0.91-16.72v-0.07c0.11-.8,1.15-7.93,4.47-11.56a15.43,15.43,0,0,1,10.71-5.12l0.53-.06h0.13c13.28-1,33.31-1,33.51-1h0.05c0.2,0,20.24,0,33.51,1H322l0.53,0.06a15.43,15.43,0,0,1,10.7,5.11c3.35,3.62,4.38,10.77,4.48,11.58v0c0,0.34,1,8.46,1,16.75v7.71a165.44,165.44,0,0,1-1,16.74v0.05c-0.11.8-1.16,8-4.48,11.56a15.42,15.42,0,0,1-10.71,5.12l-0.53.06h-0.13c-13.28,1-33.33,1.06-33.54,1.06h0ZM256.42,441c7.48,0.73,31.22,1,32,1s20.14,0,33-1l0.58-.06a10,10,0,0,0,7.19-3.33l0,0c1.83-2,2.85-6.93,3.08-8.55,0.06-.51.93-8.36,0.93-16.08v-7.7c0-7.76-.9-15.63-1-16.11-0.32-2.38-1.43-6.79-3.07-8.54l0,0a10,10,0,0,0-7.19-3.34l-0.58-.06c-13.07-1-32.83-1-33-1h-0.05c-0.2,0-20,0-33,1l-0.58.06a10,10,0,0,0-7.19,3.34l0,0c-1.83,2-2.85,6.92-3.08,8.55-0.06.59-.87,8.4-0.87,16.09v7.7c0,7.75.87,15.6,0.93,16.08,0.32,2.38,1.43,6.79,3.07,8.54l0,0c2.32,2.58,5.3,3,7.48,3.26C255.54,440.81,256,440.87,256.42,441Z" transform="translate(-238.05 -370.56)"/><rect class="a" x="31.45" y="18.38" width="12" height="40.13"/><rect class="a" x="55.83" y="18.45" width="12" height="40"/></svg>