<svg xmlns="http://www.w3.org/2000/svg" width="100.68" height="76.89" viewBox="0 0 100.68 76.89"><defs><style>.a{fill:#fff}</style></defs><title>icon_video-controls_pause</title><path class="a" d="M50.31 76.89c-1 0-24.95-.27-32.6-1H17.41c-.27-.06-.67-.11-1.13-.17-2.5-.33-7.16-.94-10.84-5C2.09 67.1 1.06 59.95.96 59.14a165.47 165.47 0 0 1-1-16.74v-7.7c0-8.27.88-16.38.91-16.72v-.07c.11-.8 1.15-7.93 4.47-11.56a15.43 15.43 0 0 1 10.71-5.12l.53-.06h.13c13.28-1 33.31-1 33.51-1h.05c.2 0 20.24 0 33.51 1h.17l.53.06a15.43 15.43 0 0 1 10.7 5.11c3.35 3.62 4.38 10.77 4.48 11.58 0 .34 1 8.46 1 16.75v7.71a165.44 165.44 0 0 1-1 16.74v.05c-.11.8-1.16 8-4.48 11.56a15.42 15.42 0 0 1-10.71 5.12l-.53.06h-.13c-13.28 1-33.33 1.06-33.54 1.06zm-31.94-6.45c7.48.73 31.22 1 32 1s20.14 0 33-1l.58-.06a10 10 0 0 0 7.19-3.33c1.83-2 2.85-6.93 3.08-8.55.06-.51.93-8.36.93-16.08v-7.7c0-7.76-.9-15.63-1-16.11-.32-2.38-1.43-6.79-3.07-8.54a10 10 0 0 0-7.19-3.34l-.58-.06c-13.07-1-32.83-1-33-1h-.05c-.2 0-20 0-33 1l-.58.06a10 10 0 0 0-7.19 3.34c-1.83 2-2.85 6.92-3.08 8.55-.06.59-.87 8.4-.87 16.09v7.7c0 7.75.87 15.6.93 16.08.32 2.38 1.43 6.79 3.07 8.54 2.32 2.58 5.3 3 7.48 3.26.47-.04.93.02 1.35.15z"/><path class="a" d="M31.45 18.38h12v40.13h-12zM55.83 18.45h12v40h-12z"/></svg>